<?xml version="1.0" encoding="utf-8"?>
<!-- Generator: Adobe Illustrator 24.1.0, SVG Export Plug-In . SVG Version: 6.00 Build 0)  -->
<svg version="1.1" id="Layer_1" xmlns="http://www.w3.org/2000/svg" xmlns:xlink="http://www.w3.org/1999/xlink" x="0px" y="0px"
	 viewBox="0 0 141 141" style="enable-background:new 0 0 141 141;" xml:space="preserve">
<style type="text/css">
	.st0{filter:url(#Adobe_OpacityMaskFilter);}
	.st1{fill-rule:evenodd;clip-rule:evenodd;fill:#1D1D1B;}
	.st2{mask:url(#mask-2_1_);fill-rule:evenodd;clip-rule:evenodd;fill:#1D1D1B;}
</style>
<g id="Welcome">
	<g id="Homepage" transform="translate(-1350.000000, -833.000000)">
		<g id="Group-74" transform="translate(1350.000000, 833.000000)">
			<g id="Group-3" transform="translate(62.213837, 0.000000)">
				<g id="Clip-2">
				</g>
				<defs>
					<filter id="Adobe_OpacityMaskFilter" filterUnits="userSpaceOnUse" x="0" y="0" width="5.5" height="8">
						
							<feColorMatrix  type="matrix" values="-1 0 0 0 1  0 -1 0 0 1  0 0 -1 0 1  0 0 0 1 0" color-interpolation-filters="sRGB" result="source"/>
					</filter>
				</defs>
				<mask maskUnits="userSpaceOnUse" x="0" y="0" width="5.5" height="8" id="mask-2_1_">
					<g class="st0">
						<polygon id="path-1_1_" class="st1" points="0,0 5.5,0 5.5,8 0,8 						"/>
					</g>
				</mask>
				<path id="Fill-1" class="st2" d="M3.1,7.9C2.5,8,2,7.9,1.6,7.8C1.1,7.6,0.8,7.3,0.5,7S0.1,6.2,0,5.7l1.2-0.1
					c0,0.4,0.2,0.7,0.5,1S2.5,7,3,7c0.4,0,0.8-0.2,1-0.4C4.2,6.3,4.3,6,4.3,5.7c0-0.3-0.1-0.5-0.2-0.6C4,4.9,3.8,4.8,3.6,4.7
					C3.3,4.6,3.1,4.5,2.8,4.4C2.5,4.4,2.3,4.3,1.9,4.2C1.3,4.1,0.9,3.9,0.6,3.6C0.2,3.3,0.1,2.9,0,2.4c0-0.4,0-0.8,0.2-1.2
					C0.4,0.9,0.7,0.6,1,0.4C1.4,0.2,1.8,0,2.3,0c0.5,0,0.9,0,1.3,0.2c0.4,0.2,0.7,0.4,0.9,0.7C4.9,1.2,5,1.6,5,2L3.8,2.1
					c0-0.2-0.1-0.4-0.2-0.6C3.5,1.4,3.3,1.2,3.1,1.1C2.9,1,2.7,1,2.4,1C2,1,1.7,1.1,1.5,1.3C1.3,1.6,1.2,1.8,1.2,2.2
					c0,0.3,0.1,0.5,0.3,0.7C1.7,3,2,3.1,2.3,3.2C2.6,3.3,3,3.4,3.4,3.5c0.4,0.1,0.7,0.2,1.1,0.4C4.7,4,5,4.2,5.2,4.5
					c0.2,0.3,0.3,0.6,0.4,1.1c0,0.4,0,0.8-0.2,1.1C5.2,7,4.9,7.3,4.5,7.5C4.1,7.8,3.6,7.9,3.1,7.9"/>
			</g>
			<path id="Fill-4" class="st1" d="M75.1,8c-0.8-0.1-1.4-0.3-1.9-0.7c-0.5-0.4-0.9-0.9-1.2-1.5c-0.3-0.6-0.3-1.3-0.3-2.1
				c0.1-0.8,0.3-1.5,0.6-2c0.3-0.6,0.8-1,1.4-1.3c0.6-0.3,1.2-0.4,2-0.4c0.9,0.1,1.6,0.3,2.2,0.8c0.5,0.5,0.9,1.1,0.9,1.9l-1.3-0.1
				c-0.1-0.5-0.3-0.8-0.6-1.1c-0.3-0.3-0.8-0.5-1.3-0.5c-0.8-0.1-1.4,0.2-1.9,0.6c-0.5,0.5-0.8,1.2-0.8,2.1C72.8,4.7,73,5.4,73.4,6
				c0.4,0.6,1,0.9,1.8,0.9c0.6,0,1,0,1.4-0.3c0.4-0.2,0.6-0.5,0.7-1l1.3,0.1c-0.2,0.7-0.6,1.3-1.2,1.7C76.7,7.9,76,8,75.1,8"/>
			<path id="Fill-6" class="st1" d="M84.2,5.1l1.4,0.3c0.5,0.1,0.9,0.1,1.2-0.1c0.3-0.2,0.5-0.5,0.6-0.9c0.1-0.4,0.1-0.7-0.1-1
				c-0.2-0.3-0.5-0.5-1.1-0.6l-1.4-0.3L84.2,5.1z M82.1,8.7l1.8-7.5l2.6,0.6c0.6,0.1,1.1,0.4,1.4,0.6c0.3,0.3,0.6,0.6,0.7,1
				c0.1,0.4,0.1,0.8,0,1.2c-0.1,0.5-0.3,0.9-0.7,1.2c-0.3,0.3-0.8,0.5-1.3,0.5l0.8,3.6L86,9.7l-0.7-3.4L84,6l-0.7,3L82.1,8.7z"/>
			<path id="Fill-8" class="st1" d="M94.6,11.6c0.5,0.2,1,0.3,1.4,0.2c0.5-0.1,0.9-0.3,1.2-0.6c0.4-0.3,0.7-0.8,0.9-1.3
				c0.2-0.6,0.3-1.1,0.3-1.6S98.2,7.5,98,7.1c-0.3-0.4-0.6-0.7-1.1-0.9C96.3,6,95.9,6,95.4,6c-0.5,0.1-0.9,0.3-1.2,0.6
				c-0.4,0.3-0.7,0.8-0.9,1.3C93,8.5,92.9,9,93,9.5c0,0.5,0.2,0.9,0.5,1.3C93.7,11.1,94.1,11.4,94.6,11.6 M94.2,12.6
				c-0.7-0.3-1.3-0.7-1.6-1.2c-0.4-0.5-0.6-1.1-0.7-1.8c-0.1-0.7,0.1-1.4,0.4-2.1c0.3-0.7,0.7-1.3,1.3-1.7C93.9,5.3,94.5,5,95.2,5
				c0.7-0.1,1.3,0,2,0.3c0.7,0.3,1.3,0.7,1.6,1.2c0.4,0.5,0.6,1.1,0.7,1.8c0.1,0.7-0.1,1.4-0.4,2.1c-0.3,0.7-0.7,1.3-1.2,1.7
				c-0.5,0.4-1.1,0.7-1.8,0.8C95.5,13,94.9,12.9,94.2,12.6"/>
			<polygon id="Fill-10" class="st1" points="101,15.8 105.1,9.3 106.1,9.9 102.5,15.6 105.5,17.5 105,18.3 			"/>
			<polygon id="Fill-12" class="st1" points="108,20.5 112.9,14.5 113.8,15.3 109.5,20.5 112.2,22.7 111.6,23.4 			"/>
			<path id="Fill-14" class="st1" d="M119.5,30.3l0.8,1c0.4,0.6,0.8,0.9,1.3,1.1s0.9,0.2,1.3,0.1c0.4-0.1,0.9-0.3,1.4-0.7
				c0.5-0.4,0.8-0.7,1.1-1.1c0.2-0.4,0.3-0.8,0.3-1.3c-0.1-0.5-0.3-1-0.7-1.5l-0.8-1L119.5,30.3z M118,30l6.1-4.6l1.5,2
				c0.5,0.7,0.9,1.4,1,2.1c0.1,0.7,0,1.3-0.3,1.8c-0.3,0.6-0.8,1.1-1.4,1.6c-0.6,0.5-1.3,0.8-1.9,0.9c-0.6,0.1-1.2,0-1.8-0.2
				c-0.6-0.3-1.2-0.8-1.7-1.5L118,30z"/>
			<path id="Fill-16" class="st1" d="M126.3,41c0.2,0.5,0.6,0.8,0.9,1.1c0.4,0.2,0.8,0.4,1.3,0.4c0.5,0,1-0.1,1.5-0.4
				c0.5-0.3,1-0.6,1.2-1c0.3-0.4,0.5-0.8,0.5-1.3c0-0.5-0.1-0.9-0.3-1.4c-0.2-0.5-0.6-0.8-0.9-1.1c-0.4-0.2-0.8-0.4-1.3-0.4
				c-0.5,0-1,0.2-1.5,0.4s-1,0.6-1.2,1c-0.3,0.4-0.5,0.8-0.5,1.3C126,40.1,126.1,40.6,126.3,41 M125.4,41.5c-0.3-0.7-0.5-1.3-0.5-2
				c0-0.7,0.2-1.3,0.6-1.8c0.4-0.6,0.9-1,1.6-1.4c0.7-0.4,1.4-0.5,2.1-0.5c0.7,0,1.3,0.2,1.9,0.6c0.6,0.4,1,0.9,1.4,1.5
				c0.3,0.7,0.5,1.3,0.5,2c0,0.7-0.2,1.3-0.6,1.8c-0.4,0.6-0.9,1-1.6,1.4c-0.7,0.4-1.4,0.5-2.1,0.5c-0.7,0-1.3-0.2-1.9-0.5
				C126.2,42.7,125.7,42.2,125.4,41.5"/>
			<polygon id="Fill-18" class="st1" points="129,49.5 135.8,45.3 136.2,46.5 130.5,49.8 137.1,49.7 137.5,50.9 131.8,54.4 
				138.4,54 138.7,55.2 130.7,55.4 130.4,54.1 135.7,50.8 129.4,50.8 			"/>
			<polygon id="Fill-20" class="st1" points="131.8,60.9 139.5,60.1 139.6,61.3 134.2,65.7 139.9,65.1 140.1,66.3 132.4,67 
				132.3,65.9 137.7,61.5 131.9,62 			"/>
			<polygon id="Fill-22" class="st1" points="131,75.8 140.2,79.8 140,80.9 130.9,77 			"/>
			<polygon id="Fill-24" class="st1" points="130.2,81.4 139,86.2 138.7,87.3 130,82.5 			"/>
			<path id="Fill-26" class="st1" d="M126.5,96.2c0.2-0.5,0.5-0.9,0.9-1.2c0.4-0.3,0.8-0.5,1.2-0.5c0.4-0.1,0.9,0,1.3,0.2l-0.5,1.1
				c-0.4-0.2-0.8-0.2-1.1-0.1c-0.4,0.1-0.7,0.4-0.9,0.9c-0.2,0.4-0.2,0.8-0.1,1.1c0.1,0.3,0.3,0.6,0.6,0.7c0.2,0.1,0.5,0.2,0.7,0.1
				c0.2,0,0.4-0.1,0.6-0.3c0.2-0.1,0.4-0.3,0.6-0.5c0.2-0.2,0.4-0.4,0.6-0.7c0.4-0.5,0.8-0.8,1.3-0.9c0.4-0.1,0.8-0.1,1.3,0.1
				c0.4,0.2,0.7,0.4,0.9,0.8c0.2,0.3,0.3,0.7,0.3,1.1c0,0.4-0.1,0.9-0.3,1.3c-0.2,0.5-0.5,0.8-0.8,1.1s-0.7,0.4-1.1,0.5
				c-0.4,0.1-0.8,0-1.2-0.2l0.5-1.1c0.2,0.1,0.4,0.1,0.6,0.1c0.2,0,0.4-0.1,0.6-0.2c0.2-0.1,0.3-0.3,0.5-0.6
				c0.2-0.3,0.2-0.6,0.1-0.9c-0.1-0.3-0.3-0.5-0.6-0.7c-0.3-0.1-0.5-0.1-0.7-0.1c-0.2,0.1-0.4,0.3-0.7,0.5c-0.2,0.2-0.5,0.5-0.8,0.8
				c-0.3,0.3-0.6,0.5-0.8,0.7c-0.3,0.2-0.6,0.3-0.9,0.4c-0.3,0-0.7,0-1.1-0.2c-0.4-0.2-0.6-0.4-0.9-0.7c-0.2-0.3-0.3-0.7-0.4-1.2
				C126.1,97.2,126.2,96.7,126.5,96.2"/>
			<path id="Fill-28" class="st1" d="M121.6,104.7c0.4-0.6,0.9-1.1,1.5-1.4c0.6-0.3,1.2-0.4,1.9-0.3c0.7,0.1,1.3,0.3,2,0.8
				c0.7,0.4,1.2,1,1.5,1.5c0.3,0.6,0.5,1.2,0.5,1.8c0,0.6-0.3,1.3-0.7,1.9c-0.5,0.7-1.1,1.2-1.8,1.5c-0.7,0.2-1.4,0.2-2.1-0.1
				l0.7-1.1c0.4,0.2,0.8,0.2,1.3,0c0.4-0.1,0.8-0.4,1.1-0.9c0.4-0.6,0.6-1.3,0.4-2c-0.2-0.7-0.7-1.3-1.4-1.8
				c-0.8-0.5-1.5-0.7-2.2-0.6c-0.7,0.1-1.2,0.4-1.7,1.1c-0.3,0.5-0.5,0.9-0.4,1.3s0.2,0.8,0.5,1.1l-0.7,1.1
				c-0.5-0.6-0.8-1.2-0.9-1.9C120.9,106.2,121.1,105.5,121.6,104.7"/>
			<path id="Fill-30" class="st1" d="M119.6,114l-1,1c-0.4,0.4-0.5,0.8-0.5,1.1c0,0.4,0.2,0.7,0.5,1c0.3,0.3,0.6,0.4,1,0.4
				c0.3,0,0.7-0.2,1.1-0.6l1-1L119.6,114z M117.5,110.4l5.6,5.2l-1.8,1.9c-0.4,0.4-0.8,0.7-1.2,0.9c-0.4,0.1-0.8,0.2-1.2,0.1
				c-0.4-0.1-0.7-0.3-1-0.6c-0.3-0.3-0.6-0.7-0.7-1.2c-0.1-0.4,0-0.9,0.2-1.4l-3.5-1l0.9-1l3.3,1l0.9-1l-2.3-2.1L117.5,110.4z"/>
			<path id="Fill-32" class="st1" d="M108.9,119.9c-0.4,0.3-0.7,0.7-0.9,1.1c-0.2,0.4-0.2,0.9-0.1,1.4c0.1,0.5,0.3,1,0.7,1.4
				c0.4,0.5,0.8,0.8,1.2,1c0.4,0.2,0.9,0.3,1.3,0.2c0.5-0.1,0.9-0.2,1.3-0.6c0.4-0.3,0.7-0.7,0.9-1.1c0.2-0.4,0.2-0.9,0.1-1.4
				c-0.1-0.5-0.3-1-0.7-1.4c-0.4-0.5-0.8-0.8-1.2-1c-0.4-0.2-0.9-0.3-1.3-0.2C109.7,119.4,109.3,119.6,108.9,119.9 M108.2,119.1
				c0.6-0.5,1.2-0.7,1.9-0.8c0.7-0.1,1.3,0,1.9,0.3c0.6,0.3,1.2,0.7,1.7,1.3c0.5,0.6,0.8,1.3,0.9,1.9c0.1,0.7,0,1.3-0.2,1.9
				c-0.2,0.6-0.7,1.2-1.3,1.6c-0.6,0.5-1.2,0.7-1.9,0.8c-0.7,0.1-1.3,0-1.9-0.3c-0.6-0.3-1.2-0.7-1.7-1.3c-0.5-0.6-0.8-1.3-0.9-1.9
				s-0.1-1.3,0.2-1.9C107.2,120.1,107.6,119.5,108.2,119.1"/>
			<polygon id="Fill-34" class="st1" points="102.1,123.5 105.8,130.2 104.8,130.8 101.5,124.8 98.4,126.5 98,125.7 			"/>
			<polygon id="Fill-36" class="st1" points="94.6,127.3 97.3,134.5 96.3,134.9 93.8,128.6 90.5,129.9 90.2,129 			"/>
			<path id="Fill-38" class="st1" d="M80.4,132.5l-1.3,0.2c-0.7,0.1-1.2,0.3-1.6,0.6c-0.4,0.3-0.6,0.6-0.7,1.1
				c-0.1,0.4-0.1,1-0.1,1.6c0.1,0.6,0.2,1.1,0.5,1.5c0.2,0.4,0.6,0.7,1,0.9c0.4,0.2,1,0.2,1.7,0.1l1.3-0.2L80.4,132.5z M81.4,131.3
				l1,7.6l-2.5,0.3c-0.9,0.1-1.7,0.1-2.3-0.2c-0.6-0.2-1.1-0.6-1.5-1.2c-0.4-0.5-0.6-1.2-0.7-2c-0.1-0.8-0.1-1.5,0.2-2.1
				c0.2-0.6,0.6-1.1,1.1-1.5c0.5-0.4,1.3-0.6,2.1-0.8L81.4,131.3z"/>
			<path id="Fill-40" class="st1" d="M67.7,133.1c-0.5,0-1,0.1-1.4,0.3c-0.4,0.2-0.7,0.5-1,1c-0.2,0.4-0.4,1-0.4,1.6
				c0,0.6,0.1,1.1,0.3,1.6c0.2,0.4,0.5,0.8,0.9,1c0.4,0.2,0.8,0.4,1.4,0.4c0.5,0,1-0.1,1.4-0.3c0.4-0.2,0.7-0.5,1-1
				c0.2-0.4,0.4-1,0.4-1.6c0-0.6-0.1-1.1-0.3-1.6c-0.2-0.4-0.5-0.8-0.9-1C68.7,133.3,68.2,133.2,67.7,133.1 M67.8,132.1
				c0.8,0,1.4,0.2,2,0.6c0.6,0.4,1,0.8,1.3,1.4c0.3,0.6,0.4,1.3,0.4,2.1c0,0.8-0.2,1.5-0.6,2.1c-0.3,0.6-0.8,1-1.4,1.4
				c-0.6,0.3-1.3,0.5-2,0.4c-0.8,0-1.4-0.2-2-0.6c-0.6-0.4-1-0.8-1.3-1.5c-0.3-0.6-0.4-1.3-0.4-2.1c0-0.8,0.2-1.5,0.6-2.1
				c0.3-0.6,0.8-1,1.4-1.4C66.3,132.2,67,132.1,67.8,132.1"/>
			<polygon id="Fill-42" class="st1" points="59,131.4 59.3,139.3 58.1,139.1 58,132.5 54.9,138.3 53.6,138 53.4,131.4 50.4,137.3 
				49.2,137 53,130 54.3,130.3 54.6,136.6 57.7,131.1 			"/>
			<polygon id="Fill-44" class="st1" points="47.7,128.2 44.6,135.3 43.5,134.8 42.3,127.9 40,133.2 38.9,132.8 42.1,125.7 
				43.1,126.2 44.3,133.1 46.6,127.8 			"/>
			<polygon id="Fill-46" class="st1" points="35.1,120.2 27.1,126.3 26.2,125.6 34.2,119.5 			"/>
			<polygon id="Fill-48" class="st1" points="30.6,116.8 22.1,122.1 21.3,121.3 29.8,116 			"/>
			<path id="Fill-50" class="st1" d="M19.5,106.2c0.3,0.5,0.5,0.9,0.6,1.4c0.1,0.5,0.1,0.9-0.1,1.3c-0.2,0.4-0.4,0.8-0.8,1.1l-0.7-1
				c0.3-0.2,0.5-0.6,0.6-1c0.1-0.4,0-0.8-0.3-1.2c-0.3-0.4-0.6-0.6-0.9-0.7c-0.3-0.1-0.6,0-0.9,0.2c-0.2,0.2-0.4,0.3-0.4,0.5
				c-0.1,0.2-0.1,0.4,0,0.6c0,0.2,0.1,0.5,0.2,0.8c0.1,0.3,0.2,0.6,0.3,0.9c0.2,0.6,0.2,1.1,0.2,1.5c-0.1,0.4-0.3,0.8-0.7,1.1
				c-0.3,0.3-0.7,0.4-1.1,0.4c-0.4,0-0.8-0.1-1.1-0.3c-0.4-0.2-0.7-0.5-1-0.9c-0.3-0.4-0.5-0.8-0.5-1.2c-0.1-0.4,0-0.8,0.1-1.2
				c0.1-0.4,0.4-0.7,0.7-0.9l0.7,1c-0.2,0.1-0.3,0.3-0.4,0.5c-0.1,0.2-0.1,0.4-0.1,0.6c0,0.2,0.1,0.5,0.3,0.7
				c0.2,0.3,0.5,0.5,0.8,0.6c0.3,0.1,0.6,0,0.9-0.2c0.2-0.2,0.4-0.4,0.4-0.6c0-0.2,0-0.5-0.1-0.8c-0.1-0.3-0.2-0.7-0.3-1.1
				c-0.1-0.4-0.2-0.7-0.2-1.1c0-0.3,0-0.7,0.1-1c0.1-0.3,0.4-0.6,0.7-0.9c0.3-0.2,0.7-0.4,1.1-0.4c0.4,0,0.8,0,1.2,0.2
				C18.8,105.4,19.2,105.8,19.5,106.2"/>
			<path id="Fill-52" class="st1" d="M14.5,97.9c0.3,0.7,0.5,1.3,0.4,2c0,0.6-0.3,1.2-0.7,1.8c-0.4,0.5-0.9,1-1.6,1.3
				c-0.7,0.4-1.4,0.5-2.1,0.5c-0.7,0-1.3-0.2-1.8-0.5c-0.6-0.3-1-0.9-1.3-1.5C7,100.7,6.8,99.9,7,99.2c0.1-0.7,0.5-1.3,1.2-1.8
				l0.6,1.2c-0.4,0.3-0.6,0.7-0.7,1.1C8,100,8,100.5,8.3,101c0.3,0.7,0.9,1.1,1.5,1.3c0.7,0.2,1.4,0,2.2-0.4
				c0.8-0.4,1.3-0.9,1.6-1.6c0.3-0.6,0.2-1.3-0.1-2c-0.3-0.5-0.6-0.8-0.9-1c-0.4-0.2-0.8-0.2-1.2-0.1L10.8,96
				c0.8-0.2,1.4-0.2,2.1,0.2C13.5,96.5,14.1,97.1,14.5,97.9"/>
			<path id="Fill-54" class="st1" d="M7.3,91.6l-0.4-1.4c-0.2-0.5-0.4-0.8-0.7-1c-0.3-0.2-0.7-0.2-1.1,0c-0.4,0.1-0.7,0.3-0.8,0.6
				c-0.2,0.3-0.2,0.7,0,1.2l0.4,1.3L7.3,91.6z M11.5,91.5l-7.3,2.4l-0.8-2.5c-0.2-0.6-0.2-1.1-0.2-1.5c0.1-0.4,0.2-0.8,0.5-1.1
				c0.3-0.3,0.6-0.5,1-0.6c0.5-0.1,0.9-0.2,1.4,0c0.4,0.1,0.8,0.4,1.2,0.9l2.6-2.6l0.4,1.3L7.8,90l0.4,1.3l3-0.9L11.5,91.5z"/>
			<path id="Fill-56" class="st1" d="M7.5,79.3c-0.1-0.5-0.3-1-0.6-1.3c-0.3-0.4-0.7-0.6-1.1-0.8c-0.5-0.2-1-0.2-1.6-0.1
				c-0.6,0.1-1.1,0.3-1.5,0.6C2.3,78,2,78.3,1.8,78.8c-0.2,0.4-0.2,0.9-0.1,1.4c0.1,0.5,0.3,1,0.6,1.3c0.3,0.4,0.7,0.6,1.1,0.8
				c0.5,0.2,1,0.2,1.6,0.1c0.6-0.1,1.1-0.3,1.5-0.6c0.4-0.3,0.7-0.6,0.9-1.1C7.5,80.3,7.6,79.8,7.5,79.3 M8.5,79.2
				c0.1,0.8,0,1.4-0.2,2.1c-0.2,0.6-0.6,1.1-1.2,1.5c-0.5,0.4-1.2,0.7-2,0.8c-0.8,0.1-1.5,0.1-2.1-0.2c-0.6-0.2-1.2-0.6-1.6-1.1
				c-0.4-0.5-0.7-1.2-0.8-1.9c-0.1-0.8,0-1.4,0.2-2.1c0.2-0.6,0.6-1.1,1.2-1.5c0.5-0.4,1.2-0.7,2-0.8c0.8-0.1,1.5-0.1,2.1,0.2
				c0.6,0.2,1.2,0.6,1.6,1.1C8.2,77.8,8.4,78.4,8.5,79.2"/>
			<polygon id="Fill-58" class="st1" points="7.7,71.6 0,71.5 0,70.3 6.8,70.4 6.9,66.9 7.8,67 			"/>
			<polygon id="Fill-60" class="st1" points="8.1,63.2 0.4,62.1 0.6,61 7.3,61.9 7.8,58.5 8.7,58.6 			"/>
			<path id="Fill-62" class="st1" d="M10.5,48.3l0.5-1.2c0.3-0.6,0.4-1.2,0.3-1.7c-0.1-0.5-0.3-0.9-0.6-1.2
				c-0.3-0.3-0.8-0.6-1.3-0.8c-0.6-0.2-1.1-0.3-1.5-0.3c-0.5,0-0.9,0.2-1.3,0.4c-0.4,0.3-0.7,0.8-0.9,1.4l-0.5,1.2L10.5,48.3z
				 M11,49.8l-7.2-2.8l0.9-2.3c0.3-0.8,0.8-1.5,1.3-1.9C6.5,42.3,7.1,42,7.7,42c0.6,0,1.3,0.1,2.1,0.4c0.7,0.3,1.3,0.7,1.7,1.1
				c0.4,0.5,0.7,1,0.8,1.7c0.1,0.7-0.1,1.4-0.4,2.2L11,49.8z"/>
			<path id="Fill-64" class="st1" d="M16.1,36.9c0.3-0.4,0.4-0.9,0.4-1.4c0-0.5-0.1-0.9-0.4-1.3c-0.3-0.4-0.6-0.8-1.2-1.1
				c-0.5-0.3-1-0.5-1.5-0.5c-0.5,0-0.9,0-1.3,0.3c-0.4,0.2-0.7,0.5-1,1s-0.4,0.9-0.4,1.4c0,0.5,0.1,0.9,0.4,1.3
				c0.3,0.4,0.7,0.8,1.2,1.1c0.5,0.3,1,0.5,1.5,0.5c0.5,0,0.9,0,1.3-0.3C15.5,37.7,15.8,37.4,16.1,36.9 M17,37.5
				c-0.4,0.7-0.9,1.1-1.5,1.4c-0.6,0.3-1.2,0.4-1.9,0.4c-0.7,0-1.4-0.3-2-0.7c-0.7-0.4-1.2-0.9-1.5-1.5c-0.3-0.6-0.5-1.2-0.5-1.9
				c0-0.7,0.2-1.3,0.6-2c0.4-0.6,0.9-1.1,1.5-1.4c0.6-0.3,1.2-0.4,1.9-0.4s1.3,0.3,2,0.7c0.7,0.4,1.2,0.9,1.5,1.5
				c0.3,0.6,0.5,1.2,0.5,1.9C17.6,36.2,17.4,36.8,17,37.5"/>
			<polygon id="Fill-66" class="st1" points="21.9,30.2 14.8,26.6 15.7,25.6 21.4,28.8 17.9,23.2 18.8,22.3 24.6,25.3 21,19.9 
				21.8,18.9 26.1,25.7 25.1,26.7 19.6,23.9 22.8,29.2 			"/>
			<polygon id="Fill-68" class="st1" points="30.2,21.9 25.6,15.8 26.5,15.1 33.1,17.4 29.6,12.8 30.5,12.1 35.2,18.2 34.2,18.9 
				27.7,16.6 31.1,21.2 			"/>
			<polygon id="Fill-70" class="st1" points="43.4,14.8 42,4.9 43.1,4.5 44.4,14.4 			"/>
			<polygon id="Fill-72" class="st1" points="48.6,12.6 48.1,2.6 49.2,2.2 49.7,12.2 			"/>
		</g>
	</g>
</g>
</svg>
