<?xml version="1.0" encoding="UTF-8"?>
<svg width="43px" height="49px" viewBox="0 0 43 49" version="1.1" xmlns="http://www.w3.org/2000/svg" xmlns:xlink="http://www.w3.org/1999/xlink">
    <title>Group 7 Copy</title>
    <g id="Welcome" stroke="none" stroke-width="1" fill="none" fill-rule="evenodd">
        <g id="Homepage---design---Mobile-Copy-3" transform="translate(-302.000000, -590.000000)">
            <g id="Group-7-Copy" transform="translate(303.000000, 591.000000)">
                <path d="M40.9991711,20.1898995 C41.0042075,24.1965339 40.0595715,27.660593 38.4692629,30.9726673 C36.8858038,34.2706359 34.7352408,37.1700668 32.0979555,39.7190389 C29.3998299,42.3270168 26.3590244,44.490961 23.0720374,46.313188 C21.4027573,47.2384073 19.6833142,47.2254935 18.0081918,46.2947114 C14.9224612,44.5801651 12.0299288,42.5968145 9.45227503,40.1894961 C4.96137564,35.9953145 1.90284189,30.9653164 0.549649213,24.9985761 C-0.9435567,18.4139633 0.641312555,12.5082154 4.86930939,7.26782285 C7.77030307,3.6716464 11.5139951,1.37876355 16.081247,0.41281637 C18.8682156,-0.176645844 21.6487374,-0.116646657 24.4250287,0.476789013 C28.1415239,1.27148024 31.4679966,2.83900867 34.3099632,5.3555971 C37.5036752,8.18390316 39.5460553,11.6799485 40.4886768,15.8022106 C40.8426383,17.349673 41.0134746,18.9201816 40.9991711,20.1898995 Z" id="Stroke-1" stroke="#D8D8D8" stroke-width="2"></path>
                <path d="M15.2668399,33 C12.2190536,32.9415173 9.54185676,30.6001129 9.09004031,27.5919274 C9.02487448,27.1584214 9.0336949,26.714163 9.00157275,26.275543 C8.98788134,26.0871135 9.06292079,26.019583 9.25262578,26.0096174 C10.9391702,25.9215 12.4212651,26.4399763 13.7002269,27.5207254 C14.9473298,28.5744623 15.7384036,29.9017302 15.9643118,31.5279678 C16.0232902,31.9524261 15.9924845,32.3901281 15.9877452,32.821405 C15.9870869,32.8722823 15.894275,32.9579082 15.8355599,32.9660381 C15.6441435,32.9929191 15.4487777,32.9913456 15.2668399,33 Z" id="Stroke-3" fill="#D8D8D8"></path>
                <path d="M26.0564483,32.9948778 C25.9302418,32.0761475 26.012322,31.2006268 26.3364404,30.3597528 C27.1978232,28.1244481 28.7647019,26.663754 31.1115397,26.1244248 C31.6464401,26.0013829 32.2178498,26.03682 32.7727122,26.0009877 C32.9392365,25.9901853 32.9900606,26.0679099 32.9958391,26.2381134 C33.1057609,29.4165196 31.0277522,32.1576924 27.9520419,32.8742071 C27.7042253,32.931776 27.4494483,32.9764347 27.1962472,32.9898718 C26.8265579,33.009237 26.4554239,32.9948778 26.0564483,32.9948778 Z" id="Stroke-5" fill="#D8D8D8"></path>
            </g>
        </g>
    </g>
</svg>