<?xml version="1.0" encoding="UTF-8"?>
<svg width="141px" height="141px" viewBox="0 0 141 141" version="1.1" xmlns="http://www.w3.org/2000/svg" xmlns:xlink="http://www.w3.org/1999/xlink">
    <title>Group 74</title>
    <defs>
        <polygon id="path-1" points="0 0 5.54884623 0 5.54884623 7.95644546 0 7.95644546"></polygon>
    </defs>
    <g id="Welcome" stroke="none" stroke-width="1" fill="none" fill-rule="evenodd">
        <g id="Homepage" transform="translate(-1350.000000, -833.000000)">
            <g id="Group-74" transform="translate(1350.000000, 833.000000)">
                <g id="Group-3" transform="translate(62.213837, 0.000000)">
                    <mask id="mask-2" fill="white">
                        <use xlink:href="#path-1"></use>
                    </mask>
                    <g id="Clip-2"></g>
                    <path d="M3.06916306,7.943 C2.50616306,7.986 2.00516306,7.926 1.56616306,7.761 C1.12616306,7.597 0.774163058,7.341 0.508163058,6.994 C0.242163058,6.647 0.0861630576,6.221 0.0401630576,5.717 L1.26816306,5.622 C1.30716306,6.031 1.47616306,6.367 1.77616306,6.631 C2.07616306,6.895 2.47816306,7.007 2.98316306,6.968 C3.42816306,6.933 3.76916306,6.798 4.00516306,6.564 C4.24016306,6.328 4.34516306,6.043 4.31916306,5.706 C4.29816306,5.436 4.22116306,5.221 4.08816306,5.062 C3.95416306,4.903 3.77816306,4.777 3.56216306,4.684 C3.34516306,4.59 3.09816306,4.51 2.82016306,4.443 C2.54316306,4.376 2.25116306,4.303 1.94316306,4.224 C1.33616306,4.072 0.872163058,3.851 0.551163058,3.559 C0.231163058,3.268 0.0511630576,2.866 0.0111630576,2.354 C-0.0298369424,1.923 0.0421630576,1.539 0.226163058,1.201 C0.409163058,0.863 0.682163058,0.59 1.04516306,0.382 C1.40716306,0.174 1.84116306,0.05 2.34616306,0.011 C2.84316306,-0.027 3.28716306,0.03 3.67716306,0.184 C4.06816306,0.338 4.38216306,0.569 4.61916306,0.878 C4.85716306,1.187 4.99516306,1.557 5.03616306,1.988 L3.80816306,2.083 C3.79316306,1.885 3.72716306,1.701 3.61116306,1.53 C3.49416306,1.359 3.33316306,1.222 3.12716306,1.12 C2.92016306,1.019 2.67416306,0.979 2.38916306,1.001 C2.02316306,1.022 1.72816306,1.137 1.50616306,1.345 C1.28216306,1.553 1.18416306,1.826 1.21016306,2.162 C1.23316306,2.462 1.33916306,2.686 1.52716306,2.833 C1.71516306,2.98 1.96616306,3.095 2.28116306,3.177 C2.59716306,3.259 2.95716306,3.355 3.36216306,3.463 C3.75316306,3.558 4.10416306,3.682 4.41816306,3.834 C4.73116306,3.986 4.98816306,4.198 5.18916306,4.469 C5.39016306,4.741 5.50816306,5.096 5.54216306,5.534 C5.57216306,5.922 5.50116306,6.29 5.32916306,6.638 C5.15716306,6.985 4.88216306,7.279 4.50416306,7.518 C4.12516306,7.757 3.64716306,7.899 3.06916306,7.943" id="Fill-1" fill="#1D1D1B" mask="url(#mask-2)"></path>
                </g>
                <path d="M75.0916,7.9635 C74.3296,7.9045 73.6876,7.6885 73.1596,7.3135 C72.6346,6.9385 72.2436,6.4415 71.9896,5.8215 C71.7366,5.2035 71.6396,4.5025 71.6986,3.7195 C71.7596,2.9305 71.9626,2.2495 72.3086,1.6765 C72.6536,1.1035 73.1166,0.6705 73.6956,0.3765 C74.2716,0.0825 74.9416,-0.0355 75.7006,0.0235 C76.6016,0.0915 77.3186,0.3675 77.8556,0.8505 C78.3926,1.3335 78.7066,1.9755 78.8006,2.7765 L77.5056,2.6765 C77.4376,2.2235 77.2456,1.8515 76.9296,1.5625 C76.6126,1.2735 76.1736,1.1075 75.6116,1.0645 C74.8436,1.0055 74.2166,1.2195 73.7306,1.7085 C73.2436,2.1965 72.9646,2.8985 72.8946,3.8125 C72.8256,4.7185 72.9936,5.4485 73.4006,6.0025 C73.8066,6.5555 74.3926,6.8615 75.1596,6.9215 C75.7226,6.9635 76.1836,6.8745 76.5386,6.6515 C76.8926,6.4285 77.1386,6.1065 77.2756,5.6825 L78.5686,5.7815 C78.3576,6.5305 77.9486,7.0985 77.3456,7.4855 C76.7416,7.8735 75.9896,8.0325 75.0916,7.9635" id="Fill-4" fill="#1D1D1B"></path>
                <path d="M84.1658,5.1398 L85.5458,5.4698 C86.0598,5.5928 86.4658,5.5578 86.7648,5.3648 C87.0628,5.1728 87.2598,4.8768 87.3548,4.4768 C87.4508,4.0778 87.4098,3.7308 87.2308,3.4348 C87.0538,3.1398 86.6998,2.9298 86.1728,2.8028 L84.8028,2.4758 L84.1658,5.1398 Z M82.1058,8.7418 L83.8958,1.2528 L86.4748,1.8688 C87.0668,2.0108 87.5298,2.2268 87.8638,2.5178 C88.1968,2.8078 88.4168,3.1458 88.5208,3.5288 C88.6258,3.9118 88.6278,4.3098 88.5288,4.7238 C88.4188,5.1878 88.1948,5.5788 87.8578,5.8978 C87.5218,6.2178 87.0738,6.3968 86.5138,6.4358 L87.3488,9.9948 L86.0318,9.6798 L85.2988,6.3148 L83.9618,5.9948 L83.2398,9.0128 L82.1058,8.7418 Z" id="Fill-6" fill="#1D1D1B"></path>
                <path d="M94.5564,11.6408 C95.0434,11.8458 95.5124,11.9158 95.9654,11.8518 C96.4174,11.7878 96.8314,11.5958 97.2044,11.2748 C97.5774,10.9548 97.8824,10.5148 98.1194,9.9538 C98.3554,9.3918 98.4564,8.8668 98.4244,8.3758 C98.3924,7.8848 98.2414,7.4548 97.9704,7.0868 C97.7004,6.7178 97.3214,6.4318 96.8344,6.2268 C96.3474,6.0218 95.8764,5.9508 95.4204,6.0138 C94.9644,6.0768 94.5514,6.2688 94.1814,6.5908 C93.8114,6.9118 93.5084,7.3528 93.2724,7.9138 C93.0354,8.4758 92.9324,9.0008 92.9614,9.4898 C92.9904,9.9798 93.1414,10.4098 93.4154,10.7788 C93.6894,11.1488 94.0704,11.4358 94.5564,11.6408 M94.1514,12.6038 C93.4484,12.3078 92.8994,11.8938 92.5024,11.3618 C92.1064,10.8288 91.8744,10.2238 91.8094,9.5488 C91.7434,8.8718 91.8634,8.1728 92.1664,7.4498 C92.4714,6.7258 92.8884,6.1518 93.4174,5.7258 C93.9464,5.2998 94.5394,5.0428 95.1984,4.9538 C95.8564,4.8648 96.5364,4.9678 97.2404,5.2638 C97.9434,5.5588 98.4924,5.9738 98.8884,6.5058 C99.2854,7.0388 99.5144,7.6428 99.5774,8.3168 C99.6394,8.9918 99.5184,9.6908 99.2134,10.4138 C98.9104,11.1378 98.4944,11.7128 97.9684,12.1398 C97.4434,12.5668 96.8514,12.8258 96.1934,12.9138 C95.5354,13.0038 94.8544,12.8998 94.1514,12.6038" id="Fill-8" fill="#1D1D1B"></path>
                <polygon id="Fill-10" fill="#1D1D1B" points="101.0203 15.8122 105.0803 9.2702 106.0713 9.8852 102.4983 15.6422 105.4693 17.4862 104.9823 18.2712"></polygon>
                <polygon id="Fill-12" fill="#1D1D1B" points="108.0164 20.4762 112.9174 14.5382 113.8174 15.2802 109.5034 20.5062 112.2024 22.7322 111.6134 23.4452"></polygon>
                <path d="M119.4588,30.3122 L120.2338,31.3392 C120.6538,31.8952 121.0768,32.2672 121.5038,32.4552 C121.9308,32.6432 122.3678,32.6802 122.8148,32.5672 C123.2638,32.4552 123.7248,32.2192 124.1978,31.8612 C124.6728,31.5032 125.0278,31.1232 125.2658,30.7192 C125.5018,30.3142 125.5908,29.8802 125.5288,29.4162 C125.4688,28.9532 125.2288,28.4422 124.8088,27.8862 L124.0328,26.8592 L119.4588,30.3122 Z M117.9668,29.9782 L124.1118,25.3392 L125.6158,27.3322 C126.1598,28.0522 126.4808,28.7392 126.5808,29.3952 C126.6808,30.0502 126.5858,30.6642 126.2968,31.2362 C126.0068,31.8082 125.5468,32.3332 124.9138,32.8102 C124.2878,33.2832 123.6598,33.5802 123.0298,33.7012 C122.3998,33.8232 121.7858,33.7452 121.1868,33.4672 C120.5858,33.1892 120.0148,32.6912 119.4708,31.9712 L117.9668,29.9782 Z" id="Fill-14" fill="#1D1D1B"></path>
                <path d="M126.3045,41.0373 C126.5465,41.5063 126.8615,41.8623 127.2495,42.1033 C127.6385,42.3443 128.0775,42.4623 128.5705,42.4563 C129.0625,42.4503 129.5775,42.3083 130.1195,42.0293 C130.6605,41.7503 131.0765,41.4123 131.3665,41.0163 C131.6575,40.6193 131.8175,40.1923 131.8465,39.7363 C131.8745,39.2793 131.7685,38.8163 131.5275,38.3473 C131.2845,37.8783 130.9695,37.5213 130.5785,37.2763 C130.1895,37.0323 129.7485,36.9143 129.2585,36.9233 C128.7685,36.9323 128.2525,37.0763 127.7115,37.3553 C127.1705,37.6343 126.7545,37.9703 126.4615,38.3643 C126.1695,38.7573 126.0105,39.1843 125.9835,39.6433 C125.9555,40.1033 126.0635,40.5673 126.3045,41.0373 M125.3755,41.5163 C125.0265,40.8373 124.8705,40.1673 124.9085,39.5043 C124.9475,38.8413 125.1585,38.2293 125.5405,37.6693 C125.9245,37.1083 126.4655,36.6483 127.1625,36.2893 C127.8605,35.9303 128.5485,35.7563 129.2285,35.7703 C129.9075,35.7833 130.5275,35.9673 131.0895,36.3213 C131.6515,36.6753 132.1065,37.1903 132.4555,37.8693 C132.8055,38.5473 132.9605,39.2173 132.9225,39.8803 C132.8845,40.5433 132.6725,41.1533 132.2875,41.7103 C131.9025,42.2683 131.3615,42.7263 130.6635,43.0853 C129.9655,43.4453 129.2785,43.6203 128.6015,43.6093 C127.9235,43.6003 127.3045,43.4173 126.7415,43.0633 C126.1805,42.7093 125.7255,42.1933 125.3755,41.5163" id="Fill-16" fill="#1D1D1B"></path>
                <polygon id="Fill-18" fill="#1D1D1B" points="129.0105 49.4948 135.8295 45.3378 136.1815 46.5418 130.4855 49.7978 137.1035 49.6988 137.4635 50.9338 131.8175 54.3588 138.3695 54.0388 138.7215 55.2428 130.7385 55.3728 130.3565 54.0638 135.6815 50.7558 129.3975 50.7798"></polygon>
                <polygon id="Fill-20" fill="#1D1D1B" points="131.7967 60.8673 139.4617 60.1353 139.5727 61.2953 134.1697 65.6903 139.9407 65.1393 140.0507 66.3003 132.3857 67.0323 132.2757 65.8713 137.6787 61.4763 131.9077 62.0283"></polygon>
                <polygon id="Fill-22" fill="#1D1D1B" points="130.9949 75.841 140.1839 79.784 140.0389 80.92 130.8509 76.965"></polygon>
                <polygon id="Fill-24" fill="#1D1D1B" points="130.2049 81.4093 138.9909 86.1823 138.7429 87.2993 129.9589 82.5143"></polygon>
                <path d="M126.4578,96.1857 C126.6958,95.6727 126.9938,95.2657 127.3528,94.9627 C127.7118,94.6617 128.1068,94.4787 128.5398,94.4167 C128.9728,94.3557 129.4208,94.4277 129.8828,94.6337 L129.3638,95.7507 C128.9878,95.5847 128.6118,95.5687 128.2348,95.7007 C127.8578,95.8327 127.5628,96.1287 127.3508,96.5867 C127.1628,96.9937 127.1128,97.3567 127.2028,97.6767 C127.2928,97.9977 127.4898,98.2287 127.7968,98.3717 C128.0428,98.4857 128.2678,98.5227 128.4718,98.4847 C128.6758,98.4457 128.8708,98.3547 129.0598,98.2107 C129.2468,98.0677 129.4368,97.8917 129.6318,97.6827 C129.8258,97.4737 130.0318,97.2537 130.2528,97.0247 C130.6828,96.5697 131.1028,96.2737 131.5138,96.1367 C131.9248,95.9997 132.3628,96.0397 132.8288,96.2557 C133.2248,96.4317 133.5238,96.6817 133.7288,97.0067 C133.9338,97.3317 134.0378,97.7047 134.0418,98.1227 C134.0458,98.5407 133.9408,98.9797 133.7288,99.4387 C133.5188,99.8907 133.2508,100.2487 132.9258,100.5147 C132.6008,100.7807 132.2448,100.9407 131.8588,100.9967 C131.4738,101.0517 131.0828,100.9917 130.6868,100.8167 L131.2058,99.6997 C131.3858,99.7827 131.5788,99.8147 131.7848,99.7977 C131.9908,99.7807 132.1888,99.7067 132.3788,99.5767 C132.5678,99.4457 132.7238,99.2507 132.8448,98.9917 C133.0048,98.6627 133.0498,98.3487 132.9768,98.0527 C132.9038,97.7557 132.7148,97.5377 132.4088,97.3947 C132.1358,97.2687 131.8898,97.2507 131.6688,97.3427 C131.4488,97.4347 131.2258,97.5977 130.9988,97.8317 C130.7728,98.0667 130.5138,98.3337 130.2208,98.6347 C129.9468,98.9277 129.6668,99.1737 129.3808,99.3737 C129.0948,99.5717 128.7838,99.6927 128.4488,99.7347 C128.1138,99.7777 127.7468,99.7067 127.3478,99.5207 C126.9948,99.3577 126.7088,99.1157 126.4898,98.7947 C126.2708,98.4747 126.1488,98.0917 126.1268,97.6447 C126.1038,97.1977 126.2148,96.7107 126.4578,96.1857" id="Fill-26" fill="#1D1D1B"></path>
                <path d="M121.6277,104.7179 C122.0527,104.0839 122.5577,103.6299 123.1437,103.3569 C123.7287,103.0819 124.3537,102.9879 125.0177,103.0709 C125.6807,103.1539 126.3387,103.4129 126.9897,103.8509 C127.6487,104.2919 128.1417,104.8039 128.4707,105.3859 C128.7997,105.9689 128.9497,106.5839 128.9217,107.2319 C128.8937,107.8789 128.6667,108.5199 128.2417,109.1539 C127.7387,109.9029 127.1467,110.3919 126.4617,110.6219 C125.7777,110.8519 125.0647,110.8109 124.3207,110.4969 L125.0437,109.4189 C125.4727,109.5829 125.8907,109.5989 126.2977,109.4649 C126.7047,109.3319 127.0647,109.0309 127.3797,108.5629 C127.8097,107.9229 127.9307,107.2709 127.7437,106.6079 C127.5577,105.9449 127.0837,105.3569 126.3217,104.8469 C125.5667,104.3399 124.8487,104.1269 124.1667,104.2089 C123.4857,104.2899 122.9307,104.6509 122.5017,105.2899 C122.1877,105.7599 122.0397,106.2029 122.0587,106.6219 C122.0777,107.0409 122.2377,107.4139 122.5407,107.7399 L121.8167,108.8189 C121.2707,108.2659 120.9757,107.6309 120.9357,106.9149 C120.8947,106.1989 121.1247,105.4669 121.6277,104.7179" id="Fill-28" fill="#1D1D1B"></path>
                <path d="M119.6287,114.005 L118.6637,115.045 C118.3047,115.432 118.1357,115.803 118.1567,116.157 C118.1787,116.512 118.3397,116.829 118.6407,117.109 C118.9417,117.388 119.2647,117.523 119.6087,117.512 C119.9537,117.501 120.3107,117.297 120.6797,116.9 L121.6377,115.867 L119.6287,114.005 Z M117.5017,110.442 L123.1477,115.678 L121.3457,117.621 C120.9317,118.067 120.5157,118.365 120.0987,118.513 C119.6807,118.661 119.2797,118.687 118.8947,118.59 C118.5097,118.492 118.1607,118.299 117.8497,118.01 C117.4997,117.686 117.2687,117.299 117.1557,116.85 C117.0427,116.4 117.1067,115.921 117.3467,115.414 L113.8367,114.394 L114.7567,113.401 L118.0487,114.414 L118.9827,113.406 L116.7087,111.297 L117.5017,110.442 Z" id="Fill-30" fill="#1D1D1B"></path>
                <path d="M108.8709,119.8751 C108.4539,120.1991 108.1629,120.5751 107.9979,121.0011 C107.8319,121.4271 107.7979,121.8821 107.8939,122.3641 C107.9909,122.8461 108.2259,123.3271 108.5999,123.8081 C108.9749,124.2881 109.3839,124.6341 109.8269,124.8461 C110.2709,125.0591 110.7199,125.1361 111.1739,125.0801 C111.6279,125.0241 112.0619,124.8341 112.4789,124.5101 C112.8959,124.1861 113.1879,123.8101 113.3559,123.3811 C113.5249,122.9521 113.5589,122.4981 113.4599,122.0181 C113.3599,121.5381 113.1229,121.0581 112.7489,120.5771 C112.3749,120.0971 111.9679,119.7501 111.5269,119.5351 C111.0859,119.3211 110.6369,119.2431 110.1809,119.3021 C109.7239,119.3591 109.2869,119.5511 108.8709,119.8751 M108.2279,119.0511 C108.8309,118.5821 109.4609,118.3051 110.1189,118.2201 C110.7769,118.1351 111.4179,118.2291 112.0399,118.5021 C112.6609,118.7751 113.2129,119.2221 113.6949,119.8411 C114.1779,120.4601 114.4749,121.1041 114.5879,121.7741 C114.6999,122.4441 114.6339,123.0881 114.3909,123.7051 C114.1459,124.3231 113.7239,124.8661 113.1209,125.3351 C112.5189,125.8031 111.8899,126.0801 111.2299,126.1651 C110.5719,126.2501 109.9329,126.1551 109.3139,125.8801 C108.6949,125.6041 108.1449,125.1561 107.6629,124.5371 C107.1819,123.9181 106.8829,123.2751 106.7669,122.6071 C106.6509,121.9391 106.7159,121.2971 106.9599,120.6801 C107.2039,120.0621 107.6269,119.5201 108.2279,119.0511" id="Fill-32" fill="#1D1D1B"></path>
                <polygon id="Fill-34" fill="#1D1D1B" points="102.0799 123.4728 105.8069 130.2108 104.7859 130.7758 101.5069 124.8458 98.4459 126.5378 97.9989 125.7308"></polygon>
                <polygon id="Fill-36" fill="#1D1D1B" points="94.5613 127.3136 97.3393 134.4946 96.2513 134.9156 93.8073 128.5956 90.5443 129.8576 90.2113 128.9966"></polygon>
                <path d="M80.3904,132.4552 L79.1154,132.6252 C78.4244,132.7172 77.8924,132.9022 77.5194,133.1822 C77.1454,133.4602 76.8984,133.8222 76.7764,134.2672 C76.6544,134.7132 76.6324,135.2302 76.7104,135.8192 C76.7884,136.4082 76.9464,136.9042 77.1814,137.3102 C77.4154,137.7152 77.7504,138.0062 78.1844,138.1812 C78.6194,138.3562 79.1804,138.3972 79.8714,138.3062 L81.1474,138.1362 L80.3904,132.4552 Z M81.4154,131.3202 L82.4324,138.9522 L79.9564,139.2822 C79.0634,139.4012 78.3064,139.3432 77.6864,139.1072 C77.0674,138.8712 76.5784,138.4872 76.2234,137.9532 C75.8684,137.4202 75.6374,136.7612 75.5334,135.9762 C75.4294,135.1982 75.4794,134.5052 75.6834,133.8972 C75.8874,133.2892 76.2574,132.7932 76.7944,132.4062 C77.3304,132.0202 78.0464,131.7682 78.9414,131.6492 L81.4154,131.3202 Z" id="Fill-38" fill="#1D1D1B"></path>
                <path d="M67.7127,133.1457 C67.1847,133.1257 66.7207,133.2267 66.3197,133.4467 C65.9197,133.6667 65.6017,133.9937 65.3657,134.4247 C65.1297,134.8567 65.0007,135.3757 64.9787,135.9847 C64.9567,136.5927 65.0467,137.1217 65.2507,137.5687 C65.4547,138.0167 65.7487,138.3647 66.1317,138.6137 C66.5157,138.8627 66.9707,138.9967 67.4987,139.0157 C68.0257,139.0347 68.4927,138.9337 68.8967,138.7137 C69.3007,138.4947 69.6197,138.1677 69.8517,137.7367 C70.0837,137.3047 70.2107,136.7847 70.2327,136.1757 C70.2547,135.5677 70.1667,135.0407 69.9657,134.5917 C69.7657,134.1447 69.4717,133.7957 69.0847,133.5477 C68.6977,133.2987 68.2397,133.1647 67.7127,133.1457 M67.7507,132.1007 C68.5127,132.1287 69.1737,132.3217 69.7327,132.6797 C70.2927,133.0377 70.7227,133.5207 71.0227,134.1297 C71.3237,134.7397 71.4597,135.4357 71.4317,136.2197 C71.4017,137.0037 71.2157,137.6887 70.8717,138.2747 C70.5277,138.8597 70.0637,139.3107 69.4797,139.6267 C68.8957,139.9437 68.2227,140.0867 67.4607,140.0597 C66.6987,140.0327 66.0377,139.8387 65.4787,139.4817 C64.9197,139.1237 64.4907,138.6397 64.1937,138.0317 C63.8967,137.4217 63.7627,136.7257 63.7917,135.9417 C63.8197,135.1577 64.0047,134.4717 64.3447,133.8867 C64.6857,133.3007 65.1477,132.8497 65.7317,132.5337 C66.3157,132.2177 66.9887,132.0737 67.7507,132.1007" id="Fill-40" fill="#1D1D1B"></path>
                <polygon id="Fill-42" fill="#1D1D1B" points="58.9886 131.3625 59.2796 139.3425 58.0576 139.0615 58.0036 132.5015 54.8536 138.3215 53.5986 138.0325 53.3726 131.4315 50.4476 137.3045 49.2256 137.0225 53.0156 129.9955 54.3446 130.3015 54.6266 136.5645 57.6786 131.0715"></polygon>
                <polygon id="Fill-44" fill="#1D1D1B" points="47.7142 128.2335 44.6012 135.2755 43.5342 134.8045 42.3472 127.9415 40.0032 133.2435 38.9372 132.7715 42.0502 125.7295 43.1162 126.2005 44.3042 133.0635 46.6482 127.7615"></polygon>
                <polygon id="Fill-46" fill="#1D1D1B" points="35.0603 120.1916 27.1073 126.2526 26.1903 125.5686 34.1523 119.5136"></polygon>
                <polygon id="Fill-48" fill="#1D1D1B" points="30.5979 116.7638 22.1239 122.0728 21.2739 121.3078 29.7559 116.0058"></polygon>
                <path d="M19.5452,106.2433 C19.8762,106.7013 20.0852,107.1603 20.1732,107.6213 C20.2622,108.0823 20.2272,108.5153 20.0692,108.9243 C19.9122,109.3323 19.6302,109.6863 19.2242,109.9883 L18.5032,108.9903 C18.8322,108.7433 19.0302,108.4243 19.0992,108.0303 C19.1682,107.6373 19.0542,107.2353 18.7572,106.8253 C18.4962,106.4623 18.2032,106.2413 17.8792,106.1633 C17.5562,106.0853 17.2582,106.1433 16.9842,106.3423 C16.7642,106.5003 16.6212,106.6783 16.5552,106.8753 C16.4892,107.0713 16.4732,107.2873 16.5062,107.5203 C16.5392,107.7553 16.6002,108.0083 16.6872,108.2793 C16.7742,108.5513 16.8652,108.8383 16.9572,109.1413 C17.1452,109.7393 17.1972,110.2513 17.1152,110.6773 C17.0342,111.1013 16.7842,111.4653 16.3682,111.7653 C16.0222,112.0243 15.6572,112.1643 15.2732,112.1823 C14.8892,112.2023 14.5132,112.1113 14.1472,111.9103 C13.7802,111.7103 13.4482,111.4043 13.1522,110.9933 C12.8602,110.5903 12.6782,110.1813 12.6062,109.7663 C12.5332,109.3533 12.5672,108.9653 12.7072,108.6013 C12.8472,108.2383 13.0912,107.9273 13.4372,107.6683 L14.1582,108.6663 C13.9982,108.7823 13.8752,108.9343 13.7892,109.1233 C13.7042,109.3113 13.6712,109.5203 13.6922,109.7493 C13.7132,109.9783 13.8072,110.2093 13.9742,110.4413 C14.1832,110.7423 14.4342,110.9343 14.7282,111.0153 C15.0232,111.0973 15.3062,111.0393 15.5802,110.8423 C15.8242,110.6663 15.9602,110.4593 15.9872,110.2223 C16.0152,109.9853 15.9822,109.7113 15.8882,109.3983 C15.7942,109.0873 15.6872,108.7293 15.5682,108.3273 C15.4462,107.9443 15.3692,107.5803 15.3352,107.2333 C15.3022,106.8873 15.3492,106.5563 15.4752,106.2433 C15.6022,105.9313 15.8442,105.6453 16.2012,105.3883 C16.5162,105.1603 16.8672,105.0293 17.2532,104.9943 C17.6392,104.9593 18.0332,105.0413 18.4352,105.2403 C18.8362,105.4393 19.2062,105.7733 19.5452,106.2433" id="Fill-50" fill="#1D1D1B"></path>
                <path d="M14.469,97.8732 C14.814,98.5532 14.963,99.2152 14.916,99.8602 C14.869,100.5052 14.647,101.0972 14.25,101.6352 C13.853,102.1742 13.305,102.6202 12.605,102.9762 C11.899,103.3342 11.211,103.5152 10.542,103.517218 C9.873,103.5192 9.263,103.3502 8.712,103.0082 C8.16,102.6672 7.712,102.1562 7.367,101.4772 C6.959,100.6722 6.822,99.9152 6.955,99.2062 C7.089,98.4972 7.473,97.8942 8.11,97.3982 L8.698,98.5572 C8.345,98.8512 8.128,99.2072 8.045,99.6282 C7.962,100.0482 8.048,100.5102 8.304,101.0142 C8.652,101.7002 9.161,102.1242 9.831,102.2862 C10.502,102.4472 11.245,102.3212 12.063,101.9062 C12.873,101.4952 13.41,100.9722 13.672,100.3372 C13.934,99.7032 13.89,99.0422 13.542,98.3552 C13.286,97.8522 12.971,97.5062 12.596,97.3182 C12.221,97.1302 11.818,97.0882 11.386,97.1922 L10.798,96.0352 C11.548,95.8272 12.245,95.8812 12.889,96.1942 C13.534,96.5092 14.061,97.0682 14.469,97.8732" id="Fill-52" fill="#1D1D1B"></path>
                <path d="M7.3435,91.5822 L6.9095,90.2312 C6.7475,89.7282 6.5075,89.3992 6.1885,89.2442 C5.8685,89.0892 5.5135,89.0732 5.1225,89.1992 C4.7315,89.3252 4.4555,89.5402 4.2965,89.8462 C4.1355,90.1512 4.1395,90.5622 4.3045,91.0792 L4.7355,92.4202 L7.3435,91.5822 Z M11.4915,91.4752 L4.1605,93.8292 L3.3495,91.3062 C3.1635,90.7262 3.1085,90.2182 3.1835,89.7812 C3.2595,89.3462 3.4335,88.9832 3.7065,88.6952 C3.9805,88.4072 4.3195,88.1982 4.7245,88.0672 C5.1775,87.9222 5.6285,87.9102 6.0755,88.0322 C6.5235,88.1542 6.9095,88.4442 7.2335,88.9022 L9.8425,86.3432 L10.2565,87.6312 L7.7605,90.0042 L8.1815,91.3122 L11.1345,90.3642 L11.4915,91.4752 Z" id="Fill-54" fill="#1D1D1B"></path>
                <path d="M7.5071,79.3107 C7.4291,78.7887 7.2461,78.3507 6.9561,77.9977 C6.6661,77.6437 6.2881,77.3897 5.8201,77.2377 C5.3531,77.0837 4.8181,77.0517 4.2161,77.1417 C3.6141,77.2307 3.1111,77.4157 2.7081,77.6987 C2.3051,77.9807 2.0171,78.3327 1.8421,78.7557 C1.6681,79.1787 1.6191,79.6507 1.6961,80.1727 C1.7741,80.6957 1.9581,81.1347 2.2481,81.4927 C2.5381,81.8497 2.9171,82.1027 3.3841,82.2517 C3.8511,82.4017 4.3851,82.4317 4.9871,82.3427 C5.5901,82.2527 6.0921,82.0697 6.4961,81.7907 C6.9001,81.5117 7.1881,81.1597 7.3621,80.7337 C7.5361,80.3077 7.5841,79.8327 7.5071,79.3107 M8.5411,79.1577 C8.6531,79.9127 8.5841,80.5967 8.3341,81.2117 C8.0841,81.8277 7.6881,82.3387 7.1441,82.7457 C6.6001,83.1527 5.9401,83.4137 5.1631,83.5287 C4.3871,83.6437 3.6801,83.5857 3.0411,83.3547 C2.4031,83.1237 1.8751,82.7487 1.4571,82.2327 C1.0401,81.7157 0.7751,81.0817 0.6631,80.3267 C0.5511,79.5727 0.6201,78.8867 0.8691,78.2717 C1.1191,77.6567 1.5161,77.1477 2.0611,76.7447 C2.6051,76.3407 3.2651,76.0817 4.0411,75.9657 C4.8181,75.8507 5.5251,75.9077 6.1631,76.1347 C6.8011,76.3637 7.3291,76.7357 7.7461,77.2507 C8.1641,77.7677 8.4281,78.4037 8.5411,79.1577" id="Fill-56" fill="#1D1D1B"></path>
                <polygon id="Fill-58" fill="#1D1D1B" points="7.699 71.6271 -6.21724894e-15 71.5031 0.019 70.3371 6.794 70.4461 6.851 66.9491 7.775 66.9641"></polygon>
                <polygon id="Fill-60" fill="#1D1D1B" points="8.056 63.1999 0.433 62.1089 0.599 60.9539 7.306 61.9149 7.802 58.4519 8.717 58.5829"></polygon>
                <path d="M10.5042,48.319 L10.9802,47.124 C11.2382,46.476 11.3372,45.922 11.2762,45.459 C11.2152,44.997 11.0212,44.604 10.6922,44.279 C10.3642,43.955 9.9232,43.683 9.3722,43.464 C8.8192,43.244 8.3102,43.137 7.8412,43.144 C7.3732,43.151 6.9562,43.3 6.5902,43.593 C6.2252,43.885 5.9142,44.356 5.6562,45.003 L5.1802,46.198 L10.5042,48.319 Z M10.9922,49.769 L3.8392,46.92 L4.7632,44.6 C5.0972,43.762 5.5182,43.13 6.0262,42.705 C6.5352,42.28 7.1092,42.043 7.7492,41.994 C8.3882,41.945 9.0752,42.067 9.8112,42.36 C10.5402,42.65 11.1202,43.033 11.5502,43.508 C11.9812,43.984 12.2332,44.549 12.3062,45.207 C12.3802,45.863 12.2502,46.611 11.9162,47.449 L10.9922,49.769 Z" id="Fill-62" fill="#1D1D1B"></path>
                <path d="M16.1238,36.9186 C16.3998,36.4686 16.5408,36.0156 16.5458,35.5586 C16.5508,35.1016 16.4238,34.6636 16.1638,34.2456 C15.9038,33.8286 15.5148,33.4606 14.9958,33.1416 C14.4778,32.8236 13.9728,32.6426 13.4828,32.6006 C12.9928,32.5576 12.5448,32.6416 12.1398,32.8536 C11.7348,33.0646 11.3938,33.3956 11.1178,33.8456 C10.8418,34.2956 10.6998,34.7516 10.6928,35.2106 C10.6858,35.6716 10.8128,36.1086 11.0748,36.5236 C11.3358,36.9386 11.7268,37.3046 12.2458,37.6226 C12.7638,37.9406 13.2678,38.1236 13.7558,38.1686 C14.2438,38.2146 14.6918,38.1306 15.0988,37.9156 C15.5058,37.7016 15.8478,37.3686 16.1238,36.9186 M17.0148,37.4656 C16.6158,38.1156 16.1228,38.5956 15.5358,38.9066 C14.9488,39.2176 14.3168,39.3546 13.6388,39.3166 C12.9598,39.2796 12.2868,39.0556 11.6178,38.6446 C10.9498,38.2336 10.4448,37.7356 10.1038,37.1476 C9.7638,36.5596 9.5998,35.9346 9.6108,35.2706 C9.6228,34.6056 9.8278,33.9496 10.2268,33.2986 C10.6258,32.6486 11.1188,32.1686 11.7058,31.8576 C12.2918,31.5466 12.9238,31.4116 13.5998,31.4526 C14.2758,31.4936 14.9488,31.7186 15.6178,32.1286 C16.2868,32.5396 16.7918,33.0376 17.1338,33.6216 C17.4768,34.2066 17.6428,34.8306 17.6308,35.4946 C17.6188,36.1586 17.4138,36.8156 17.0148,37.4656" id="Fill-64" fill="#1D1D1B"></path>
                <polygon id="Fill-66" fill="#1D1D1B" points="21.9446 30.2321 14.8486 26.5681 15.6936 25.6421 21.4366 28.8151 17.9116 23.2131 18.7786 22.2631 24.6406 25.3051 20.9596 19.8751 21.8046 18.9481 26.0676 25.7001 25.1476 26.7071 19.5536 23.8781 22.8416 29.2331"></polygon>
                <polygon id="Fill-68" fill="#1D1D1B" points="30.2142 21.9269 25.5932 15.7679 26.5262 15.0679 33.0932 17.3879 29.6152 12.7509 30.5472 12.0509 35.1682 18.2109 34.2352 18.9099 27.6682 16.5899 31.1472 21.2269"></polygon>
                <polygon id="Fill-70" fill="#1D1D1B" points="43.4129 14.8185 42.0149 4.9175 43.0599 4.4515 44.4479 14.3575"></polygon>
                <polygon id="Fill-72" fill="#1D1D1B" points="48.5857 12.6027 48.1087 2.6147 49.1917 2.2477 49.6587 12.2397"></polygon>
            </g>
        </g>
    </g>
</svg>