<?xml version="1.0" standalone="no"?>
<!DOCTYPE svg PUBLIC "-//W3C//DTD SVG 20010904//EN"
 "http://www.w3.org/TR/2001/REC-SVG-20010904/DTD/svg10.dtd">
<svg version="1.0" xmlns="http://www.w3.org/2000/svg"
 width="800.000000pt" height="800.000000pt" viewBox="0 0 800.000000 800.000000"
 preserveAspectRatio="xMidYMid meet">
<metadata>
Created by potrace 1.14, written by Peter Selinger 2001-2017
</metadata>
<g transform="translate(0.000000,800.000000) scale(0.100000,-0.100000)"
fill="#000000" stroke="none">
<path d="M0 4000 l0 -4000 4000 0 4000 0 0 4000 0 4000 -4000 0 -4000 0 0
-4000z m4265 3315 c386 -51 709 -148 1035 -311 289 -145 519 -311 751 -543
465 -467 741 -1064 808 -1751 24 -244 7 -612 -40 -859 -173 -911 -704 -1769
-1514 -2445 -294 -245 -782 -576 -997 -676 -181 -84 -386 -90 -570 -15 -71 29
-324 179 -520 309 -873 576 -1469 1273 -1813 2121 -330 811 -363 1565 -100
2282 48 130 169 379 249 512 267 443 627 804 1038 1040 492 283 1120 409 1673
336z"/>
<path d="M3855 6993 c-99 -6 -302 -35 -414 -59 -878 -187 -1494 -737 -1820
-1623 -112 -303 -162 -606 -156 -936 9 -472 115 -877 359 -1362 292 -584 718
-1082 1298 -1521 199 -151 575 -393 708 -456 61 -29 72 -31 175 -31 100 0 116
3 180 31 73 31 303 171 465 283 764 526 1337 1187 1635 1886 151 355 243 752
262 1125 5 122 -16 403 -43 559 -59 345 -196 689 -392 991 -274 422 -699 766
-1180 954 -316 124 -713 182 -1077 159z m-1419 -3038 c431 -75 826 -378 1019
-780 50 -105 97 -249 116 -355 17 -94 18 -325 3 -340 -21 -21 -265 -14 -382 9
-534 109 -969 543 -1082 1078 -21 97 -38 356 -27 387 5 14 26 16 135 16 72 0
169 -7 218 -15z m3483 6 c21 -13 9 -289 -17 -401 -63 -271 -188 -495 -382
-690 -205 -205 -446 -333 -726 -386 -92 -17 -337 -24 -351 -10 -16 15 -15 260
1 352 30 174 108 363 213 521 73 109 231 275 341 358 160 120 387 218 573 248
98 16 328 21 348 8z"/>
</g>
</svg>
